<?xml version="1.0" encoding="UTF-8" standalone="no"?>
<!DOCTYPE svg PUBLIC "-//W3C//DTD SVG 1.1//EN"
 "http://www.w3.org/Graphics/SVG/1.1/DTD/svg11.dtd">
<!-- Generated by graphviz version 2.40.1 (20161225.0304)
 -->
<!-- Title: G Pages: 1 -->
<svg width="391pt" height="438pt"
 viewBox="0.00 0.00 391.00 438.00" xmlns="http://www.w3.org/2000/svg" xmlns:xlink="http://www.w3.org/1999/xlink">
<g id="graph0" class="graph" transform="scale(1 1) rotate(0) translate(4 434)">
<title>G</title>
<polygon fill="#ffffff" stroke="transparent" points="-4,4 -4,-434 387,-434 387,4 -4,4"/>
<g id="clust1" class="cluster">
<title>cluster_Global</title>
<path fill="none" stroke="#c0c0c0" d="M20,-44C20,-44 363,-44 363,-44 369,-44 375,-50 375,-56 375,-56 375,-410 375,-410 375,-416 369,-422 363,-422 363,-422 20,-422 20,-422 14,-422 8,-416 8,-410 8,-410 8,-56 8,-56 8,-50 14,-44 20,-44"/>
<text text-anchor="middle" x="191.5" y="-409.2" font-family="Times,serif" font-size="11.00" fill="#c0c0c0">Global</text>
</g>
<g id="clust2" class="cluster">
<title>cluster_\Context</title>
<path fill="none" stroke="#c0c0c0" d="M28,-52C28,-52 355,-52 355,-52 361,-52 367,-58 367,-64 367,-64 367,-382 367,-382 367,-388 361,-394 355,-394 355,-394 28,-394 28,-394 22,-394 16,-388 16,-382 16,-382 16,-64 16,-64 16,-58 22,-52 28,-52"/>
<text text-anchor="middle" x="191.5" y="-381.2" font-family="Times,serif" font-size="11.00" fill="#c0c0c0">Context</text>
</g>
<!-- \\Context\\Context -->
<g id="node1" class="node">
<title>\\Context\\Context</title>
<polygon fill="none" stroke="#000000" points="315,-366 251,-366 251,-330 315,-330 315,-366"/>
<text text-anchor="middle" x="283" y="-345.2" font-family="Courier,monospace" font-size="11.00" fill="#000000">Context</text>
</g>
<!-- \\Context\\RequiredKeyException -->
<g id="node2" class="node">
<title>\\Context\\RequiredKeyException</title>
<polygon fill="none" stroke="#000000" points="359,-204 207,-204 207,-168 359,-168 359,-204"/>
<text text-anchor="middle" x="283" y="-183.2" font-family="Courier,monospace" font-size="11.00" fill="#000000">RequiredKeyException</text>
</g>
<!-- \\Exception -->
<g id="node9" class="node">
<title>\\Exception</title>
<ellipse fill="none" stroke="#000000" cx="79.5" cy="-18" rx="42.4939" ry="18"/>
<text text-anchor="middle" x="79.5" y="-14.3" font-family="Times,serif" font-size="14.00" fill="#c0c0c0">xception</text>
</g>
<!-- \\Context\\RequiredKeyException&#45;&gt;\\Exception -->
<g id="edge1" class="edge">
<title>\\Context\\RequiredKeyException&#45;&gt;\\Exception</title>
<path fill="none" stroke="#000000" d="M220.9927,-167.9837C216.0298,-165.3638 211.2859,-162.3841 207,-159 160.8493,-122.5597 178.2069,-87.8866 135,-48 130.0253,-43.4076 124.2173,-39.2839 118.2684,-35.6703"/>
<polygon fill="none" stroke="#000000" points="119.9624,-32.6075 109.5324,-30.7458 116.5249,-38.7054 119.9624,-32.6075"/>
</g>
<!-- \\Context\\UnknownKeyException -->
<g id="node3" class="node">
<title>\\Context\\UnknownKeyException</title>
<polygon fill="none" stroke="#000000" points="355.5,-150 210.5,-150 210.5,-114 355.5,-114 355.5,-150"/>
<text text-anchor="middle" x="283" y="-129.2" font-family="Courier,monospace" font-size="11.00" fill="#000000">UnknownKeyException</text>
</g>
<!-- \\Context\\UnknownKeyException&#45;&gt;\\Exception -->
<g id="edge2" class="edge">
<title>\\Context\\UnknownKeyException&#45;&gt;\\Exception</title>
<path fill="none" stroke="#000000" d="M225.6599,-113.9374C219.2278,-111.238 212.8805,-108.2547 207,-105 171.2905,-85.2361 169.0812,-70.4555 135,-48 129.1007,-44.1131 122.651,-40.2804 116.3026,-36.7213"/>
<polygon fill="none" stroke="#000000" points="117.6049,-33.4448 107.15,-31.7283 114.2525,-39.5899 117.6049,-33.4448"/>
</g>
<!-- \\Context\\EnvVariablesDriver -->
<g id="node4" class="node">
<title>\\Context\\EnvVariablesDriver</title>
<polygon fill="none" stroke="#000000" points="352,-312 214,-312 214,-276 352,-276 352,-312"/>
<text text-anchor="middle" x="283" y="-291.2" font-family="Courier,monospace" font-size="11.00" fill="#000000">EnvVariablesDriver</text>
</g>
<!-- \\Context\\IContextDriver -->
<g id="node8" class="node">
<title>\\Context\\IContextDriver</title>
<polygon fill="none" stroke="#000000" points="135,-312 24,-312 24,-276 135,-276 135,-312"/>
<text text-anchor="middle" x="79.5" y="-291.2" font-family="Courier,monospace" font-size="11.00" fill="#000000">IContextDriver</text>
</g>
<!-- \\Context\\EnvVariablesDriver&#45;&gt;\\Context\\IContextDriver -->
<g id="edge3" class="edge">
<title>\\Context\\EnvVariablesDriver&#45;&gt;\\Context\\IContextDriver</title>
<path fill="none" stroke="#000000" stroke-dasharray="1,5" d="M213.8202,-294C191.6381,-294 167.1474,-294 145.22,-294"/>
<polygon fill="none" stroke="#000000" points="145.0143,-290.5001 135.0143,-294 145.0143,-297.5001 145.0143,-290.5001"/>
</g>
<!-- \\Context\\Scheme -->
<g id="node5" class="node">
<title>\\Context\\Scheme</title>
<polygon fill="none" stroke="#000000" points="311.5,-258 254.5,-258 254.5,-222 311.5,-222 311.5,-258"/>
<text text-anchor="middle" x="283" y="-237.2" font-family="Courier,monospace" font-size="11.00" fill="#000000">Scheme</text>
</g>
<!-- \\Context\\IScheme -->
<g id="node7" class="node">
<title>\\Context\\IScheme</title>
<polygon fill="none" stroke="#000000" points="111.5,-258 47.5,-258 47.5,-222 111.5,-222 111.5,-258"/>
<text text-anchor="middle" x="79.5" y="-237.2" font-family="Courier,monospace" font-size="11.00" fill="#000000">IScheme</text>
</g>
<!-- \\Context\\Scheme&#45;&gt;\\Context\\IScheme -->
<g id="edge4" class="edge">
<title>\\Context\\Scheme&#45;&gt;\\Context\\IScheme</title>
<path fill="none" stroke="#000000" stroke-dasharray="1,5" d="M254.275,-240C219.7785,-240 161.6132,-240 121.9362,-240"/>
<polygon fill="none" stroke="#000000" points="121.7724,-236.5001 111.7724,-240 121.7724,-243.5001 121.7724,-236.5001"/>
</g>
<!-- \\Context\\iContext -->
<g id="node6" class="node">
<title>\\Context\\iContext</title>
<polygon fill="none" stroke="#000000" points="318.5,-96 247.5,-96 247.5,-60 318.5,-60 318.5,-96"/>
<text text-anchor="middle" x="283" y="-75.2" font-family="Courier,monospace" font-size="11.00" fill="#000000">iContext</text>
</g>
</g>
</svg>
