<?xml version="1.0" encoding="UTF-8" standalone="no"?>
<!DOCTYPE svg PUBLIC "-//W3C//DTD SVG 1.1//EN"
 "http://www.w3.org/Graphics/SVG/1.1/DTD/svg11.dtd">
<!-- Generated by graphviz version 2.40.1 (20161225.0304)
 -->
<!-- Title: G Pages: 1 -->
<svg width="412pt" height="492pt"
 viewBox="0.00 0.00 411.54 492.00" xmlns="http://www.w3.org/2000/svg" xmlns:xlink="http://www.w3.org/1999/xlink">
<g id="graph0" class="graph" transform="scale(1 1) rotate(0) translate(4 488)">
<title>G</title>
<polygon fill="#ffffff" stroke="transparent" points="-4,4 -4,-488 407.5433,-488 407.5433,4 -4,4"/>
<g id="clust1" class="cluster">
<title>cluster_Global</title>
<path fill="none" stroke="#c0c0c0" d="M20,-98C20,-98 383.5433,-98 383.5433,-98 389.5433,-98 395.5433,-104 395.5433,-110 395.5433,-110 395.5433,-464 395.5433,-464 395.5433,-470 389.5433,-476 383.5433,-476 383.5433,-476 20,-476 20,-476 14,-476 8,-470 8,-464 8,-464 8,-110 8,-110 8,-104 14,-98 20,-98"/>
<text text-anchor="middle" x="201.7716" y="-463.2" font-family="Times,serif" font-size="11.00" fill="#c0c0c0">Global</text>
</g>
<g id="clust2" class="cluster">
<title>cluster_\Context</title>
<path fill="none" stroke="#c0c0c0" d="M28,-106C28,-106 375.5433,-106 375.5433,-106 381.5433,-106 387.5433,-112 387.5433,-118 387.5433,-118 387.5433,-436 387.5433,-436 387.5433,-442 381.5433,-448 375.5433,-448 375.5433,-448 28,-448 28,-448 22,-448 16,-442 16,-436 16,-436 16,-118 16,-118 16,-112 22,-106 28,-106"/>
<text text-anchor="middle" x="201.7716" y="-435.2" font-family="Times,serif" font-size="11.00" fill="#c0c0c0">Context</text>
</g>
<!-- \\Context\\Context -->
<g id="node1" class="node">
<title>\\Context\\Context</title>
<polygon fill="none" stroke="#000000" points="335.5433,-312 271.5433,-312 271.5433,-276 335.5433,-276 335.5433,-312"/>
<text text-anchor="middle" x="303.5433" y="-291.2" font-family="Courier,monospace" font-size="11.00" fill="#000000">Context</text>
</g>
<!-- \\Context\\IContext -->
<g id="node9" class="node">
<title>\\Context\\IContext</title>
<ellipse fill="none" stroke="#000000" cx="79.5" cy="-72" rx="76.0865" ry="18"/>
<text text-anchor="middle" x="79.5" y="-68.3" font-family="Times,serif" font-size="14.00" fill="#c0c0c0">\Context\IContext</text>
</g>
<!-- \\Context\\Context&#45;&gt;\\Context\\IContext -->
<g id="edge1" class="edge">
<title>\\Context\\Context&#45;&gt;\\Context\\IContext</title>
<path fill="none" stroke="#000000" stroke-dasharray="1,5" d="M271.2554,-288.6444C256.4309,-284.771 239.5264,-278.1713 227.5433,-267 169.019,-212.441 213.1202,-157.5579 155.5433,-102 150.8517,-97.473 145.3953,-93.6047 139.5996,-90.3044"/>
<polygon fill="none" stroke="#000000" points="140.7755,-86.9763 130.274,-85.5728 137.6082,-93.2188 140.7755,-86.9763"/>
</g>
<!-- \\Context\\RequiredKeyException -->
<g id="node2" class="node">
<title>\\Context\\RequiredKeyException</title>
<polygon fill="none" stroke="#000000" points="379.5433,-258 227.5433,-258 227.5433,-222 379.5433,-222 379.5433,-258"/>
<text text-anchor="middle" x="303.5433" y="-237.2" font-family="Courier,monospace" font-size="11.00" fill="#000000">RequiredKeyException</text>
</g>
<!-- \\Exception -->
<g id="node10" class="node">
<title>\\Exception</title>
<ellipse fill="none" stroke="#000000" cx="79.5" cy="-18" rx="42.4939" ry="18"/>
<text text-anchor="middle" x="79.5" y="-14.3" font-family="Times,serif" font-size="14.00" fill="#c0c0c0">xception</text>
</g>
<!-- \\Context\\RequiredKeyException&#45;&gt;\\Exception -->
<g id="edge2" class="edge">
<title>\\Context\\RequiredKeyException&#45;&gt;\\Exception</title>
<path fill="none" stroke="#000000" d="M239.4066,-221.8739C235.1341,-219.2949 231.117,-216.3536 227.5433,-213 168.306,-157.4117 214.7855,-100.583 155.5433,-45 147.8009,-37.7359 137.9789,-32.4065 127.9868,-28.5029"/>
<polygon fill="none" stroke="#000000" points="129.0118,-25.1539 118.417,-25.1805 126.7159,-31.7667 129.0118,-25.1539"/>
</g>
<!-- \\Context\\UnknownKeyException -->
<g id="node3" class="node">
<title>\\Context\\UnknownKeyException</title>
<polygon fill="none" stroke="#000000" points="376.0433,-204 231.0433,-204 231.0433,-168 376.0433,-168 376.0433,-204"/>
<text text-anchor="middle" x="303.5433" y="-183.2" font-family="Courier,monospace" font-size="11.00" fill="#000000">UnknownKeyException</text>
</g>
<!-- \\Context\\UnknownKeyException&#45;&gt;\\Exception -->
<g id="edge3" class="edge">
<title>\\Context\\UnknownKeyException&#45;&gt;\\Exception</title>
<path fill="none" stroke="#000000" d="M241.1111,-167.8363C236.296,-165.2537 231.6992,-162.3226 227.5433,-159 180.7369,-121.5797 202.3529,-82.4161 155.5433,-45 147.2504,-38.3713 137.2037,-33.3011 127.1683,-29.4476"/>
<polygon fill="none" stroke="#000000" points="128.2025,-26.1016 117.6077,-26.1146 125.8981,-32.7115 128.2025,-26.1016"/>
</g>
<!-- \\Context\\EnvVariablesDriver -->
<g id="node4" class="node">
<title>\\Context\\EnvVariablesDriver</title>
<polygon fill="none" stroke="#000000" points="372.5433,-420 234.5433,-420 234.5433,-384 372.5433,-384 372.5433,-420"/>
<text text-anchor="middle" x="303.5433" y="-399.2" font-family="Courier,monospace" font-size="11.00" fill="#000000">EnvVariablesDriver</text>
</g>
<!-- \\Context\\IContextDriver -->
<g id="node8" class="node">
<title>\\Context\\IContextDriver</title>
<polygon fill="none" stroke="#000000" points="135,-420 24,-420 24,-384 135,-384 135,-420"/>
<text text-anchor="middle" x="79.5" y="-399.2" font-family="Courier,monospace" font-size="11.00" fill="#000000">IContextDriver</text>
</g>
<!-- \\Context\\EnvVariablesDriver&#45;&gt;\\Context\\IContextDriver -->
<g id="edge4" class="edge">
<title>\\Context\\EnvVariablesDriver&#45;&gt;\\Context\\IContextDriver</title>
<path fill="none" stroke="#000000" stroke-dasharray="1,5" d="M234.4948,-402C206.0963,-402 173.3548,-402 145.3025,-402"/>
<polygon fill="none" stroke="#000000" points="145.1964,-398.5001 135.1964,-402 145.1963,-405.5001 145.1964,-398.5001"/>
</g>
<!-- \\Context\\Scheme -->
<g id="node5" class="node">
<title>\\Context\\Scheme</title>
<polygon fill="none" stroke="#000000" points="332.0433,-366 275.0433,-366 275.0433,-330 332.0433,-330 332.0433,-366"/>
<text text-anchor="middle" x="303.5433" y="-345.2" font-family="Courier,monospace" font-size="11.00" fill="#000000">Scheme</text>
</g>
<!-- \\Context\\IScheme -->
<g id="node7" class="node">
<title>\\Context\\IScheme</title>
<polygon fill="none" stroke="#000000" points="111.5,-366 47.5,-366 47.5,-330 111.5,-330 111.5,-366"/>
<text text-anchor="middle" x="79.5" y="-345.2" font-family="Courier,monospace" font-size="11.00" fill="#000000">IScheme</text>
</g>
<!-- \\Context\\Scheme&#45;&gt;\\Context\\IScheme -->
<g id="edge5" class="edge">
<title>\\Context\\Scheme&#45;&gt;\\Context\\IScheme</title>
<path fill="none" stroke="#000000" stroke-dasharray="1,5" d="M274.7122,-348C235.9799,-348 166.8504,-348 122.1068,-348"/>
<polygon fill="none" stroke="#000000" points="121.8442,-344.5001 111.8441,-348 121.8441,-351.5001 121.8442,-344.5001"/>
</g>
<!-- \\Context\\iContext -->
<g id="node6" class="node">
<title>\\Context\\iContext</title>
<polygon fill="none" stroke="#000000" points="339.0433,-150 268.0433,-150 268.0433,-114 339.0433,-114 339.0433,-150"/>
<text text-anchor="middle" x="303.5433" y="-129.2" font-family="Courier,monospace" font-size="11.00" fill="#000000">iContext</text>
</g>
</g>
</svg>
