<?xml version="1.0" encoding="UTF-8" standalone="no"?>
<!DOCTYPE svg PUBLIC "-//W3C//DTD SVG 1.1//EN"
 "http://www.w3.org/Graphics/SVG/1.1/DTD/svg11.dtd">
<!-- Generated by graphviz version 2.40.1 (20161225.0304)
 -->
<!-- Title: G Pages: 1 -->
<svg width="391pt" height="330pt"
 viewBox="0.00 0.00 391.00 330.00" xmlns="http://www.w3.org/2000/svg" xmlns:xlink="http://www.w3.org/1999/xlink">
<g id="graph0" class="graph" transform="scale(1 1) rotate(0) translate(4 326)">
<title>G</title>
<polygon fill="#ffffff" stroke="transparent" points="-4,4 -4,-326 387,-326 387,4 -4,4"/>
<g id="clust1" class="cluster">
<title>cluster_Global</title>
<path fill="none" stroke="#c0c0c0" d="M20,-44C20,-44 363,-44 363,-44 369,-44 375,-50 375,-56 375,-56 375,-302 375,-302 375,-308 369,-314 363,-314 363,-314 20,-314 20,-314 14,-314 8,-308 8,-302 8,-302 8,-56 8,-56 8,-50 14,-44 20,-44"/>
<text text-anchor="middle" x="191.5" y="-301.2" font-family="Times,serif" font-size="11.00" fill="#c0c0c0">Global</text>
</g>
<g id="clust2" class="cluster">
<title>cluster_\Context</title>
<path fill="none" stroke="#c0c0c0" d="M28,-52C28,-52 355,-52 355,-52 361,-52 367,-58 367,-64 367,-64 367,-274 367,-274 367,-280 361,-286 355,-286 355,-286 28,-286 28,-286 22,-286 16,-280 16,-274 16,-274 16,-64 16,-64 16,-58 22,-52 28,-52"/>
<text text-anchor="middle" x="191.5" y="-273.2" font-family="Times,serif" font-size="11.00" fill="#c0c0c0">Context</text>
</g>
<!-- \\Context\\Scheme -->
<g id="node1" class="node">
<title>\\Context\\Scheme</title>
<polygon fill="none" stroke="#000000" points="311.5,-258 254.5,-258 254.5,-222 311.5,-222 311.5,-258"/>
<text text-anchor="middle" x="283" y="-237.2" font-family="Courier,monospace" font-size="11.00" fill="#000000">Scheme</text>
</g>
<!-- \\Context\\IScheme -->
<g id="node5" class="node">
<title>\\Context\\IScheme</title>
<polygon fill="none" stroke="#000000" points="111.5,-258 47.5,-258 47.5,-222 111.5,-222 111.5,-258"/>
<text text-anchor="middle" x="79.5" y="-237.2" font-family="Courier,monospace" font-size="11.00" fill="#000000">IScheme</text>
</g>
<!-- \\Context\\Scheme&#45;&gt;\\Context\\IScheme -->
<g id="edge1" class="edge">
<title>\\Context\\Scheme&#45;&gt;\\Context\\IScheme</title>
<path fill="none" stroke="#000000" stroke-dasharray="1,5" d="M254.275,-240C219.7785,-240 161.6132,-240 121.9362,-240"/>
<polygon fill="none" stroke="#000000" points="121.7724,-236.5001 111.7724,-240 121.7724,-243.5001 121.7724,-236.5001"/>
</g>
<!-- \\Context\\EnvContext -->
<g id="node2" class="node">
<title>\\Context\\EnvContext</title>
<polygon fill="none" stroke="#000000" points="325,-204 241,-204 241,-168 325,-168 325,-204"/>
<text text-anchor="middle" x="283" y="-183.2" font-family="Courier,monospace" font-size="11.00" fill="#000000">EnvContext</text>
</g>
<!-- \\Context\\IContextDriver -->
<g id="node6" class="node">
<title>\\Context\\IContextDriver</title>
<polygon fill="none" stroke="#000000" points="135,-204 24,-204 24,-168 135,-168 135,-204"/>
<text text-anchor="middle" x="79.5" y="-183.2" font-family="Courier,monospace" font-size="11.00" fill="#000000">IContextDriver</text>
</g>
<!-- \\Context\\EnvContext&#45;&gt;\\Context\\IContextDriver -->
<g id="edge2" class="edge">
<title>\\Context\\EnvContext&#45;&gt;\\Context\\IContextDriver</title>
<path fill="none" stroke="#000000" stroke-dasharray="1,5" d="M240.8347,-186C213.3262,-186 176.8464,-186 145.5348,-186"/>
<polygon fill="none" stroke="#000000" points="145.1346,-182.5001 135.1346,-186 145.1346,-189.5001 145.1346,-182.5001"/>
</g>
<!-- \\Context\\RequiredKeyException -->
<g id="node3" class="node">
<title>\\Context\\RequiredKeyException</title>
<polygon fill="none" stroke="#000000" points="359,-150 207,-150 207,-114 359,-114 359,-150"/>
<text text-anchor="middle" x="283" y="-129.2" font-family="Courier,monospace" font-size="11.00" fill="#000000">RequiredKeyException</text>
</g>
<!-- \\Exception -->
<g id="node7" class="node">
<title>\\Exception</title>
<ellipse fill="none" stroke="#000000" cx="79.5" cy="-18" rx="42.4939" ry="18"/>
<text text-anchor="middle" x="79.5" y="-14.3" font-family="Times,serif" font-size="14.00" fill="#c0c0c0">xception</text>
</g>
<!-- \\Context\\RequiredKeyException&#45;&gt;\\Exception -->
<g id="edge3" class="edge">
<title>\\Context\\RequiredKeyException&#45;&gt;\\Exception</title>
<path fill="none" stroke="#000000" d="M225.6599,-113.9374C219.2278,-111.238 212.8805,-108.2547 207,-105 171.2905,-85.2361 169.0812,-70.4555 135,-48 129.1007,-44.1131 122.651,-40.2804 116.3026,-36.7213"/>
<polygon fill="none" stroke="#000000" points="117.6049,-33.4448 107.15,-31.7283 114.2525,-39.5899 117.6049,-33.4448"/>
</g>
<!-- \\Context\\UnknownKeyException -->
<g id="node4" class="node">
<title>\\Context\\UnknownKeyException</title>
<polygon fill="none" stroke="#000000" points="355.5,-96 210.5,-96 210.5,-60 355.5,-60 355.5,-96"/>
<text text-anchor="middle" x="283" y="-75.2" font-family="Courier,monospace" font-size="11.00" fill="#000000">UnknownKeyException</text>
</g>
<!-- \\Context\\UnknownKeyException&#45;&gt;\\Exception -->
<g id="edge4" class="edge">
<title>\\Context\\UnknownKeyException&#45;&gt;\\Exception</title>
<path fill="none" stroke="#000000" d="M221.9433,-59.998C190.5252,-50.7347 152.9097,-39.6441 124.2247,-31.1866"/>
<polygon fill="none" stroke="#000000" points="125.0573,-27.7832 114.4757,-28.3122 123.0776,-34.4975 125.0573,-27.7832"/>
</g>
</g>
</svg>
