<?xml version="1.0" encoding="UTF-8" standalone="no"?>
<!DOCTYPE svg PUBLIC "-//W3C//DTD SVG 1.1//EN"
 "http://www.w3.org/Graphics/SVG/1.1/DTD/svg11.dtd">
<!-- Generated by graphviz version 2.40.1 (20161225.0304)
 -->
<!-- Title: G Pages: 1 -->
<svg width="696pt" height="330pt"
 viewBox="0.00 0.00 696.00 330.00" xmlns="http://www.w3.org/2000/svg" xmlns:xlink="http://www.w3.org/1999/xlink">
<g id="graph0" class="graph" transform="scale(1 1) rotate(0) translate(4 326)">
<title>G</title>
<polygon fill="#ffffff" stroke="transparent" points="-4,4 -4,-326 692,-326 692,4 -4,4"/>
<g id="clust1" class="cluster">
<title>cluster_Global</title>
<path fill="none" stroke="#c0c0c0" d="M20,-44C20,-44 668,-44 668,-44 674,-44 680,-50 680,-56 680,-56 680,-302 680,-302 680,-308 674,-314 668,-314 668,-314 20,-314 20,-314 14,-314 8,-308 8,-302 8,-302 8,-56 8,-56 8,-50 14,-44 20,-44"/>
<text text-anchor="middle" x="344" y="-301.2" font-family="Times,serif" font-size="11.00" fill="#c0c0c0">Global</text>
</g>
<g id="clust2" class="cluster">
<title>cluster_\Context</title>
<path fill="none" stroke="#c0c0c0" d="M28,-52C28,-52 660,-52 660,-52 666,-52 672,-58 672,-64 672,-64 672,-274 672,-274 672,-280 666,-286 660,-286 660,-286 28,-286 28,-286 22,-286 16,-280 16,-274 16,-274 16,-64 16,-64 16,-58 22,-52 28,-52"/>
<text text-anchor="middle" x="344" y="-273.2" font-family="Times,serif" font-size="11.00" fill="#c0c0c0">Context</text>
</g>
<!-- \\Context\\Context -->
<g id="node1" class="node">
<title>\\Context\\Context</title>
<polygon fill="none" stroke="#000000" points="593,-258 529,-258 529,-222 593,-222 593,-258"/>
<text text-anchor="middle" x="561" y="-237.2" font-family="Courier,monospace" font-size="11.00" fill="#000000">Context</text>
</g>
<!-- \\Context\\ContextInterface -->
<g id="node7" class="node">
<title>\\Context\\ContextInterface</title>
<polygon fill="none" stroke="#000000" points="386,-258 261,-258 261,-222 386,-222 386,-258"/>
<text text-anchor="middle" x="323.5" y="-237.2" font-family="Courier,monospace" font-size="11.00" fill="#000000">ContextInterface</text>
</g>
<!-- \\Context\\Context&#45;&gt;\\Context\\ContextInterface -->
<g id="edge1" class="edge">
<title>\\Context\\Context&#45;&gt;\\Context\\ContextInterface</title>
<path fill="none" stroke="#000000" stroke-dasharray="1,5" d="M528.9697,-240C495.1395,-240 440.6628,-240 396.3012,-240"/>
<polygon fill="none" stroke="#000000" points="396.1333,-236.5001 386.1333,-240 396.1333,-243.5001 396.1333,-236.5001"/>
</g>
<!-- \\Context\\RequiredKeyException -->
<g id="node2" class="node">
<title>\\Context\\RequiredKeyException</title>
<polygon fill="none" stroke="#000000" points="637,-204 485,-204 485,-168 637,-168 637,-204"/>
<text text-anchor="middle" x="561" y="-183.2" font-family="Courier,monospace" font-size="11.00" fill="#000000">RequiredKeyException</text>
</g>
<!-- \\Exception -->
<g id="node8" class="node">
<title>\\Exception</title>
<ellipse fill="none" stroke="#000000" cx="323.5" cy="-18" rx="42.4939" ry="18"/>
<text text-anchor="middle" x="323.5" y="-14.3" font-family="Times,serif" font-size="14.00" fill="#c0c0c0">xception</text>
</g>
<!-- \\Context\\RequiredKeyException&#45;&gt;\\Exception -->
<g id="edge2" class="edge">
<title>\\Context\\RequiredKeyException&#45;&gt;\\Exception</title>
<path fill="none" stroke="#000000" d="M484.9271,-173.0201C475.3505,-169.4299 466.0904,-164.8478 458,-159 410.343,-124.5531 430.1522,-86.8376 386,-48 379.8999,-42.6342 372.6714,-38.0123 365.3338,-34.1151"/>
<polygon fill="none" stroke="#000000" points="366.5772,-30.8266 356.0577,-29.5647 363.4943,-37.1112 366.5772,-30.8266"/>
</g>
<!-- \\Context\\UnknownKeyException -->
<g id="node3" class="node">
<title>\\Context\\UnknownKeyException</title>
<polygon fill="none" stroke="#000000" points="633.5,-150 488.5,-150 488.5,-114 633.5,-114 633.5,-150"/>
<text text-anchor="middle" x="561" y="-129.2" font-family="Courier,monospace" font-size="11.00" fill="#000000">UnknownKeyException</text>
</g>
<!-- \\Context\\UnknownKeyException&#45;&gt;\\Exception -->
<g id="edge3" class="edge">
<title>\\Context\\UnknownKeyException&#45;&gt;\\Exception</title>
<path fill="none" stroke="#000000" d="M488.4084,-117.0376C477.9448,-113.7245 467.5104,-109.7475 458,-105 421.4831,-86.771 420.6106,-69.6307 386,-48 378.664,-43.4152 370.5206,-39.0401 362.6016,-35.1183"/>
<polygon fill="none" stroke="#000000" points="364.0001,-31.9073 353.4701,-30.7373 360.9721,-38.2185 364.0001,-31.9073"/>
</g>
<!-- \\Context\\InvalidCastFunctionException -->
<g id="node4" class="node">
<title>\\Context\\InvalidCastFunctionException</title>
<polygon fill="none" stroke="#000000" points="664,-96 458,-96 458,-60 664,-60 664,-96"/>
<text text-anchor="middle" x="561" y="-75.2" font-family="Courier,monospace" font-size="11.00" fill="#000000">InvalidCastFunctionException</text>
</g>
<!-- \\Context\\InvalidCastFunctionException&#45;&gt;\\Exception -->
<g id="edge4" class="edge">
<title>\\Context\\InvalidCastFunctionException&#45;&gt;\\Exception</title>
<path fill="none" stroke="#000000" d="M489.7422,-59.998C450.8177,-50.1645 403.7426,-38.2718 369.6373,-29.6557"/>
<polygon fill="none" stroke="#000000" points="370.4896,-26.2612 359.9369,-27.2051 368.775,-33.0479 370.4896,-26.2612"/>
</g>
<!-- \\Context\\EnvContext -->
<g id="node5" class="node">
<title>\\Context\\EnvContext</title>
<polygon fill="none" stroke="#000000" points="365.5,-204 281.5,-204 281.5,-168 365.5,-168 365.5,-204"/>
<text text-anchor="middle" x="323.5" y="-183.2" font-family="Courier,monospace" font-size="11.00" fill="#000000">EnvContext</text>
</g>
<!-- \\Context\\ContextDriverInterface -->
<g id="node6" class="node">
<title>\\Context\\ContextDriverInterface</title>
<polygon fill="none" stroke="#000000" points="189,-231 24,-231 24,-195 189,-195 189,-231"/>
<text text-anchor="middle" x="106.5" y="-210.2" font-family="Courier,monospace" font-size="11.00" fill="#000000">ContextDriverInterface</text>
</g>
<!-- \\Context\\EnvContext&#45;&gt;\\Context\\ContextDriverInterface -->
<g id="edge5" class="edge">
<title>\\Context\\EnvContext&#45;&gt;\\Context\\ContextDriverInterface</title>
<path fill="none" stroke="#000000" stroke-dasharray="1,5" d="M281.4029,-191.2379C258.0294,-194.1461 227.9757,-197.8855 199.3969,-201.4414"/>
<polygon fill="none" stroke="#000000" points="198.8544,-197.9818 189.3631,-202.6898 199.7188,-204.9283 198.8544,-197.9818"/>
</g>
<!-- \\Context\\ContextInterface&#45;&gt;\\Context\\ContextDriverInterface -->
<g id="edge6" class="edge">
<title>\\Context\\ContextInterface&#45;&gt;\\Context\\ContextDriverInterface</title>
<path fill="none" stroke="#000000" d="M260.7346,-232.1905C241.5871,-229.8081 220.1137,-227.1363 199.4132,-224.5606"/>
<polygon fill="none" stroke="#000000" points="199.6825,-221.0672 189.3268,-223.3056 198.8181,-228.0137 199.6825,-221.0672"/>
</g>
</g>
</svg>
