<?xml version="1.0" encoding="UTF-8" standalone="no"?>
<!DOCTYPE svg PUBLIC "-//W3C//DTD SVG 1.1//EN"
 "http://www.w3.org/Graphics/SVG/1.1/DTD/svg11.dtd">
<!-- Generated by graphviz version 2.40.1 (20161225.0304)
 -->
<!-- Title: G Pages: 1 -->
<svg width="445pt" height="330pt"
 viewBox="0.00 0.00 445.00 330.00" xmlns="http://www.w3.org/2000/svg" xmlns:xlink="http://www.w3.org/1999/xlink">
<g id="graph0" class="graph" transform="scale(1 1) rotate(0) translate(4 326)">
<title>G</title>
<polygon fill="#ffffff" stroke="transparent" points="-4,4 -4,-326 441,-326 441,4 -4,4"/>
<g id="clust1" class="cluster">
<title>cluster_Global</title>
<path fill="none" stroke="#c0c0c0" d="M20,-44C20,-44 417,-44 417,-44 423,-44 429,-50 429,-56 429,-56 429,-302 429,-302 429,-308 423,-314 417,-314 417,-314 20,-314 20,-314 14,-314 8,-308 8,-302 8,-302 8,-56 8,-56 8,-50 14,-44 20,-44"/>
<text text-anchor="middle" x="218.5" y="-301.2" font-family="Times,serif" font-size="11.00" fill="#c0c0c0">Global</text>
</g>
<g id="clust2" class="cluster">
<title>cluster_\Context</title>
<path fill="none" stroke="#c0c0c0" d="M28,-52C28,-52 409,-52 409,-52 415,-52 421,-58 421,-64 421,-64 421,-274 421,-274 421,-280 415,-286 409,-286 409,-286 28,-286 28,-286 22,-286 16,-280 16,-274 16,-274 16,-64 16,-64 16,-58 22,-52 28,-52"/>
<text text-anchor="middle" x="218.5" y="-273.2" font-family="Times,serif" font-size="11.00" fill="#c0c0c0">Context</text>
</g>
<!-- \\Context\\Context -->
<g id="node1" class="node">
<title>\\Context\\Context</title>
<polygon fill="none" stroke="#000000" points="369,-258 305,-258 305,-222 369,-222 369,-258"/>
<text text-anchor="middle" x="337" y="-237.2" font-family="Courier,monospace" font-size="11.00" fill="#000000">Context</text>
</g>
<!-- \\Context\\ContextInterface -->
<g id="node6" class="node">
<title>\\Context\\ContextInterface</title>
<polygon fill="none" stroke="#000000" points="169,-258 44,-258 44,-222 169,-222 169,-258"/>
<text text-anchor="middle" x="106.5" y="-237.2" font-family="Courier,monospace" font-size="11.00" fill="#000000">ContextInterface</text>
</g>
<!-- \\Context\\Context&#45;&gt;\\Context\\ContextInterface -->
<g id="edge1" class="edge">
<title>\\Context\\Context&#45;&gt;\\Context\\ContextInterface</title>
<path fill="none" stroke="#000000" stroke-dasharray="1,5" d="M304.95,-240C272.6091,-240 221.552,-240 179.3256,-240"/>
<polygon fill="none" stroke="#000000" points="179.0761,-236.5001 169.0761,-240 179.0761,-243.5001 179.0761,-236.5001"/>
</g>
<!-- \\Context\\RequiredKeyException -->
<g id="node2" class="node">
<title>\\Context\\RequiredKeyException</title>
<polygon fill="none" stroke="#000000" points="413,-150 261,-150 261,-114 413,-114 413,-150"/>
<text text-anchor="middle" x="337" y="-129.2" font-family="Courier,monospace" font-size="11.00" fill="#000000">RequiredKeyException</text>
</g>
<!-- \\Exception -->
<g id="node7" class="node">
<title>\\Exception</title>
<ellipse fill="none" stroke="#000000" cx="106.5" cy="-18" rx="42.4939" ry="18"/>
<text text-anchor="middle" x="106.5" y="-14.3" font-family="Times,serif" font-size="14.00" fill="#c0c0c0">xception</text>
</g>
<!-- \\Context\\RequiredKeyException&#45;&gt;\\Exception -->
<g id="edge2" class="edge">
<title>\\Context\\RequiredKeyException&#45;&gt;\\Exception</title>
<path fill="none" stroke="#000000" d="M279.6599,-113.9374C273.2278,-111.238 266.8805,-108.2547 261,-105 225.2905,-85.2361 224.636,-67.8961 189,-48 177.345,-41.4928 164.0081,-35.9266 151.5044,-31.4192"/>
<polygon fill="none" stroke="#000000" points="152.2981,-27.9906 141.7034,-28.0337 150.0126,-34.6069 152.2981,-27.9906"/>
</g>
<!-- \\Context\\UnknownKeyException -->
<g id="node3" class="node">
<title>\\Context\\UnknownKeyException</title>
<polygon fill="none" stroke="#000000" points="409.5,-96 264.5,-96 264.5,-60 409.5,-60 409.5,-96"/>
<text text-anchor="middle" x="337" y="-75.2" font-family="Courier,monospace" font-size="11.00" fill="#000000">UnknownKeyException</text>
</g>
<!-- \\Context\\UnknownKeyException&#45;&gt;\\Exception -->
<g id="edge3" class="edge">
<title>\\Context\\UnknownKeyException&#45;&gt;\\Exception</title>
<path fill="none" stroke="#000000" d="M267.8424,-59.998C230.5879,-50.3005 185.6402,-38.6005 152.6585,-30.0152"/>
<polygon fill="none" stroke="#000000" points="153.3879,-26.5885 142.8287,-27.4565 151.6245,-33.3628 153.3879,-26.5885"/>
</g>
<!-- \\Context\\EnvContext -->
<g id="node4" class="node">
<title>\\Context\\EnvContext</title>
<polygon fill="none" stroke="#000000" points="379,-204 295,-204 295,-168 379,-168 379,-204"/>
<text text-anchor="middle" x="337" y="-183.2" font-family="Courier,monospace" font-size="11.00" fill="#000000">EnvContext</text>
</g>
<!-- \\Context\\ContextDriverInterface -->
<g id="node5" class="node">
<title>\\Context\\ContextDriverInterface</title>
<polygon fill="none" stroke="#000000" points="189,-204 24,-204 24,-168 189,-168 189,-204"/>
<text text-anchor="middle" x="106.5" y="-183.2" font-family="Courier,monospace" font-size="11.00" fill="#000000">ContextDriverInterface</text>
</g>
<!-- \\Context\\EnvContext&#45;&gt;\\Context\\ContextDriverInterface -->
<g id="edge4" class="edge">
<title>\\Context\\EnvContext&#45;&gt;\\Context\\ContextDriverInterface</title>
<path fill="none" stroke="#000000" stroke-dasharray="1,5" d="M294.9908,-186C268.2778,-186 232.6014,-186 199.4769,-186"/>
<polygon fill="none" stroke="#000000" points="199.2916,-182.5001 189.2916,-186 199.2916,-189.5001 199.2916,-182.5001"/>
</g>
</g>
</svg>
